<svg width="17" height="17" viewBox="0 0 17 17" fill="none" xmlns="http://www.w3.org/2000/svg">
<path d="M8.10447 16.2089C6.99686 16.2089 5.95004 15.9962 4.96398 15.5706C3.97795 15.1452 3.11684 14.5644 2.38069 13.8281C1.64454 13.092 1.06372 12.231 0.638229 11.245C0.212738 10.2589 0 9.21204 0 8.10443C0 6.98328 0.212738 5.93304 0.638229 4.9538C1.06372 3.97449 1.64454 3.1167 2.38069 2.38062C3.11684 1.64441 3.97795 1.06378 4.96398 0.638184C5.95004 0.212708 6.99686 0 8.10447 0C9.22559 0 10.2758 0.212708 11.2551 0.638184C12.2344 1.06378 13.0921 1.64441 13.8282 2.38062C14.5644 3.1167 15.1452 3.97449 15.5707 4.9538C15.9962 5.93304 16.2089 6.98328 16.2089 8.10443C16.2089 9.21204 15.9962 10.2589 15.5707 11.245C15.1452 12.231 14.5644 13.092 13.8282 13.8281C13.0921 14.5644 12.2344 15.1452 11.2551 15.5706C10.2758 15.9962 9.22559 16.2089 8.10447 16.2089ZM8.10447 14.5475C8.45566 14.0611 8.75957 13.5546 9.01622 13.0279C9.27285 12.501 9.48222 11.9406 9.64432 11.3462H6.56461C6.72671 11.9406 6.93607 12.501 7.19271 13.0279C7.44936 13.5546 7.75327 14.0611 8.10447 14.5475ZM5.9973 14.2233C5.75417 13.7776 5.54143 13.315 5.35907 12.8354C5.17673 12.3559 5.02477 11.8596 4.9032 11.3462H2.51237C2.90411 12.0216 3.39375 12.6091 3.98131 13.1089C4.56889 13.6087 5.24088 13.9801 5.9973 14.2233ZM10.2116 14.2233C10.968 13.9801 11.64 13.6087 12.2276 13.1089C12.8152 12.6091 13.3048 12.0216 13.6965 11.3462H11.3057C11.1842 11.8596 11.0322 12.3559 10.8499 12.8354C10.6675 13.315 10.4548 13.7776 10.2116 14.2233ZM1.8235 9.72534H4.57903C4.5385 9.45508 4.50812 9.18835 4.48784 8.92499C4.46758 8.66174 4.45745 8.38806 4.45745 8.10443C4.45745 7.82074 4.46758 7.54724 4.48784 7.28381C4.50812 7.02045 4.5385 6.7536 4.57903 6.48346H1.8235C1.75597 6.7536 1.70531 7.02045 1.67155 7.28381C1.63777 7.54724 1.6209 7.82074 1.6209 8.10443C1.6209 8.38806 1.63777 8.66174 1.67155 8.92499C1.70531 9.18835 1.75597 9.45508 1.8235 9.72534ZM6.19992 9.72534H10.009C10.0495 9.45508 10.0799 9.18835 10.1002 8.92499C10.1205 8.66174 10.1306 8.38806 10.1306 8.10443C10.1306 7.82074 10.1205 7.54724 10.1002 7.28381C10.0799 7.02045 10.0495 6.7536 10.009 6.48346H6.19992C6.15939 6.7536 6.129 7.02045 6.10873 7.28381C6.08848 7.54724 6.07835 7.82074 6.07835 8.10443C6.07835 8.38806 6.08848 8.66174 6.10873 8.92499C6.129 9.18835 6.15939 9.45508 6.19992 9.72534ZM11.6299 9.72534H14.3854C14.453 9.45508 14.5036 9.18835 14.5374 8.92499C14.5712 8.66174 14.588 8.38806 14.588 8.10443C14.588 7.82074 14.5712 7.54724 14.5374 7.28381C14.5036 7.02045 14.453 6.7536 14.3854 6.48346H11.6299C11.6704 6.7536 11.7008 7.02045 11.7211 7.28381C11.7413 7.54724 11.7515 7.82074 11.7515 8.10443C11.7515 8.38806 11.7413 8.66174 11.7211 8.92499C11.7008 9.18835 11.6704 9.45508 11.6299 9.72534ZM11.3057 4.86249H13.6965C13.3048 4.18726 12.8152 3.59961 12.2276 3.09991C11.64 2.60016 10.968 2.2287 10.2116 1.9856C10.4548 2.43127 10.6675 2.89392 10.8499 3.37354C11.0322 3.85303 11.1842 4.3493 11.3057 4.86249ZM6.56461 4.86249H9.64432C9.48222 4.26825 9.27285 3.7077 9.01622 3.18085C8.75957 2.65424 8.45566 2.14764 8.10447 1.6615C7.75327 2.14764 7.44936 2.65424 7.19271 3.18085C6.93607 3.7077 6.72671 4.26825 6.56461 4.86249ZM2.51237 4.86249H4.9032C5.02477 4.3493 5.17673 3.85303 5.35907 3.37354C5.54143 2.89392 5.75417 2.43127 5.9973 1.9856C5.24088 2.2287 4.56889 2.60016 3.98131 3.09991C3.39375 3.59961 2.90411 4.18726 2.51237 4.86249Z" fill="white"/>
</svg>
